<svg id="Layer_2" data-name="Layer 2" xmlns="http://www.w3.org/2000/svg" viewBox="0 0 260 260"><defs><style>.cls-1{fill:#20415f;}.cls-2{fill:#33c0df;}.cls-3{fill:#fff;}</style></defs><title>vision-icons1</title><circle class="cls-1" cx="130" cy="130" r="130"/><path class="cls-2" d="M207.61,138.8l7.91-.88c3.37,0,4.68-2.73,4.68-6.1s-1.31-6.1-4.68-6.1l-7.84-.87a7.35,7.35,0,0,1-1.51-10.35l7.25-3.28c3.2-1,3.61-4,2.57-7.24s-3.13-5.39-6.33-4.35l-7.73,1.59a7.35,7.35,0,0,1-4.64-9.38l5.89-5.36c2.73-2,2.18-5,.2-7.68s-4.64-4.16-7.37-2.18l-6.85,3.9A7.35,7.35,0,0,1,181.85,73l3.94-6.91c2-2.72.54-5.39-2.18-7.37s-5.7-2.53-7.68.2l-5.31,5.83a7.35,7.35,0,0,1-9.26-4.86l1.61-7.8c1-3.2-1.15-5.29-4.35-6.33s-6.2-.64-7.24,2.56l-3.25,7.19a7.35,7.35,0,0,1-10.31-1.76l-0.88-7.91c0-3.37-2.73-4.68-6.1-4.68s-6.1,1.31-6.1,4.68l-0.87,7.84a7.35,7.35,0,0,1-10.35,1.51L110.23,48c-1-3.2-4-3.6-7.25-2.56s-5.39,3.13-4.35,6.33l1.59,7.73a7.34,7.34,0,0,1-9.38,4.63l-5.36-5.89c-2-2.72-5-2.18-7.68-.2s-4.16,4.64-2.18,7.37l3.9,6.86A7.35,7.35,0,0,1,72,79.54L65.12,75.6c-2.73-2-5.39-.54-7.37,2.18s-2.52,5.7.2,7.68l5.83,5.31A7.35,7.35,0,0,1,58.93,100l-7.8-1.61c-3.2-1-5.29,1.15-6.33,4.35S44.16,109,47.36,110l7.19,3.25a7.35,7.35,0,0,1-1.76,10.31l-7.91.88c-3.37,0-4.68,2.73-4.68,6.1s1.31,6.1,4.68,6.1l7.84,0.87a7.35,7.35,0,0,1,1.51,10.35L47,151.16c-3.2,1-3.6,4-2.56,7.25s3.13,5.39,6.33,4.35l7.72-1.59a7.35,7.35,0,0,1,4.64,9.38l-5.89,5.36c-2.72,2-2.18,5-.2,7.68s4.64,4.16,7.37,2.18l6.86-3.91a7.35,7.35,0,0,1,7.31,7.49l-3.94,6.92c-2,2.73-.54,5.39,2.18,7.37s5.7,2.52,7.68-.2l5.31-5.83A7.35,7.35,0,0,1,99,202.46l-1.61,7.8c-1,3.21,1.15,5.29,4.35,6.34S108,217.24,109,214l3.25-7.19a7.35,7.35,0,0,1,10.31,1.76l0.88,7.91c0,3.37,2.73,4.68,6.1,4.68s6.1-1.31,6.1-4.68l0.87-7.84a7.35,7.35,0,0,1,10.35-1.51l3.28,7.25c1,3.2,4,3.61,7.24,2.57s5.39-3.13,4.35-6.33l-1.6-7.73a7.35,7.35,0,0,1,9.38-4.63l5.36,5.88c2,2.73,5,2.18,7.68.2s4.16-4.64,2.18-7.37l-3.91-6.85a7.35,7.35,0,0,1,7.49-7.31l6.92,3.94c2.72,2,5.39.54,7.37-2.18s2.53-5.7-.2-7.68l-5.83-5.31a7.35,7.35,0,0,1,4.86-9.26l7.8,1.61c3.2,1,5.29-1.15,6.33-4.35s0.64-6.2-2.56-7.24l-7.19-3.25A7.35,7.35,0,0,1,207.61,138.8ZM130.2,196.59a65.4,65.4,0,1,1,65.4-65.39A65.47,65.47,0,0,1,130.2,196.59Z"/><path class="cls-3" d="M179.65,136.05l5.06-.56c2.15,0,3-1.74,3-3.89s-0.84-3.89-3-3.89l-5-.56a4.69,4.69,0,0,1-1-6.61l4.63-2.1c2-.66,2.3-2.58,1.64-4.63s-2-3.45-4-2.78L176,112a4.7,4.7,0,0,1-3-6l3.76-3.43c1.74-1.26,1.39-3.17.13-4.91s-3-2.66-4.71-1.39l-4.38,2.49A4.69,4.69,0,0,1,163.2,94l2.52-4.42c1.26-1.74.35-3.44-1.39-4.71s-3.64-1.61-4.91.13L156,88.77a4.69,4.69,0,0,1-5.92-3.11l1-5c0.67-2-.74-3.38-2.78-4s-4-.41-4.63,1.64l-2.08,4.59a4.69,4.69,0,0,1-6.59-1.13l-0.56-5.05c0-2.15-1.74-3-3.89-3s-3.89.84-3.89,3l-0.56,5a4.69,4.69,0,0,1-6.61,1L117.44,78c-0.67-2-2.58-2.3-4.63-1.64s-3.44,2-2.78,4l1,4.94a4.69,4.69,0,0,1-6,3l-3.43-3.76c-1.27-1.74-3.17-1.39-4.91-.13s-2.66,3-1.39,4.71l2.49,4.38A4.69,4.69,0,0,1,93,98.19l-4.42-2.52c-1.74-1.26-3.44-.35-4.71,1.4S82.3,100.72,84,102l3.73,3.39a4.69,4.69,0,0,1-3.11,5.92l-5-1c-2-.66-3.38.74-4,2.78s-0.41,4,1.64,4.63l4.59,2.08a4.69,4.69,0,0,1-1.12,6.59l-5.06.56c-2.15,0-3,1.74-3,3.9s0.84,3.89,3,3.89l5,0.56a4.69,4.69,0,0,1,1,6.61L77,144c-2,.67-2.3,2.58-1.64,4.63s2,3.44,4,2.78l4.93-1a4.69,4.69,0,0,1,3,6l-3.76,3.42c-1.74,1.27-1.39,3.17-.13,4.91s3,2.66,4.71,1.39l4.38-2.5a4.69,4.69,0,0,1,4.67,4.78l-2.52,4.42c-1.26,1.74-.35,3.44,1.4,4.71s3.64,1.61,4.91-.13l3.39-3.72a4.7,4.7,0,0,1,5.92,3.1l-1,5c-0.66,2,.74,3.38,2.78,4s4,0.41,4.63-1.64l2.08-4.59a4.69,4.69,0,0,1,6.59,1.12l0.56,5.06c0,2.15,1.74,3,3.9,3s3.89-.84,3.89-3l0.56-5a4.69,4.69,0,0,1,6.61-1l2.1,4.63c0.67,2,2.58,2.3,4.63,1.64s3.45-2,2.78-4l-1-4.94a4.69,4.69,0,0,1,6-3l3.42,3.76c1.27,1.74,3.17,1.39,4.91.13s2.66-3,1.39-4.71l-2.49-4.38a4.69,4.69,0,0,1,4.78-4.67l4.42,2.52c1.74,1.27,3.44.35,4.71-1.39s1.61-3.64-.13-4.91L172.62,157a4.7,4.7,0,0,1,3.11-5.92l5,1c2,0.67,3.38-.73,4-2.78s0.41-4-1.64-4.63l-4.59-2.08A4.69,4.69,0,0,1,179.65,136.05Zm-8.4-14.45,1.75-.47q0.35,1.47.59,3l-1.8.24Q171.57,123,171.26,121.61ZM170.55,119q-0.41-1.34-.9-2.65l1.68-.69q0.54,1.41,1,2.87Zm-1.94-5.16q-0.58-1.28-1.24-2.5l1.57-.91q0.72,1.33,1.35,2.72ZM166,109q-0.74-1.19-1.56-2.32l1.44-1.1q0.89,1.23,1.69,2.52Zm-3.21-4.48q-0.89-1.08-1.84-2.1l1.28-1.28q1,1.1,2,2.28Zm-3.77-4q-1-1-2.1-1.85l1.1-1.44q1.17,1,2.28,2ZM154.76,97q-1.13-.82-2.32-1.56l0.91-1.57q1.29,0.8,2.52,1.69Zm4.25,65,1.28,1.28q-1.1,1-2.28,2l-1.1-1.44Q158,162.9,159,161.94Zm1.92-1.92q1-1,1.84-2.1l1.44,1.1q-1,1.17-2,2.28Zm3.5-4.26q0.82-1.13,1.56-2.32l1.57,0.91q-0.8,1.29-1.69,2.52Zm2.92-4.68q0.66-1.23,1.24-2.51l1.68,0.69q-0.63,1.39-1.35,2.72Zm2.28-5q0.49-1.3.9-2.65l1.75,0.47q-0.44,1.46-1,2.87Zm1.61-5.27q0.32-1.36.54-2.75l1.8,0.24q-0.25,1.51-.59,3Zm0.9-5.44q0.14-1.38.18-2.79h1.81q0,1.53-.2,3Zm0.18-5.51q0-1.41-.18-2.79l1.8-.24q0.15,1.5.2,3h-1.81ZM151,92.46L150.09,94q-1.23-.66-2.51-1.24l0.69-1.68Q149.66,91.74,151,92.46Zm-20.8,54.09a15.35,15.35,0,1,1,15.35-15.35A15.37,15.37,0,0,1,130.2,146.55Zm15.57-56.48-0.69,1.68q-1.3-.49-2.65-0.9l0.47-1.75Q144.35,89.53,145.76,90.07Zm-5.5-1.68-0.47,1.75q-1.36-.32-2.74-0.54l0.24-1.8Q138.79,88,140.26,88.39Zm-5.67-.95-0.24,1.8q-1.38-.14-2.79-0.18V87.25Q133.09,87.29,134.59,87.44Zm-5.75-.2v1.81q-1.41,0-2.79.18l-0.24-1.8Q127.31,87.29,128.84,87.25Zm-5.73.55,0.24,1.8q-1.39.23-2.74,0.54l-0.47-1.75Q121.61,88,123.11,87.8Zm-5.6,1.3L118,90.84q-1.34.41-2.65,0.9l-0.69-1.68Q116,89.53,117.51,89.09Zm-5.39,2,0.69,1.68q-1.28.58-2.51,1.24l-0.91-1.57Q110.74,91.74,112.12,91.11Zm-10.74,9.34-1.28-1.28q1.1-1,2.28-2l1.1,1.44Q102.4,99.5,101.38,100.45Zm-1.92,1.92q-1,1-1.84,2.1l-1.44-1.1q1-1.17,2-2.28ZM96,106.63q-0.82,1.13-1.56,2.32l-1.57-.91q0.8-1.29,1.69-2.52ZM93,111.31q-0.66,1.23-1.24,2.51l-1.68-.69q0.63-1.39,1.35-2.72Zm-2.28,5q-0.49,1.3-.9,2.65l-1.75-.47q0.44-1.46,1-2.87Zm-1.61,5.28q-0.32,1.36-.54,2.74l-1.8-.24q0.25-1.51.59-3ZM88.24,127q-0.14,1.38-.18,2.79H86.25q0-1.53.2-3Zm-0.18,5.51q0,1.41.18,2.79l-1.8.24q-0.15-1.5-.2-3h1.81ZM88.6,138q0.23,1.39.54,2.75l-1.75.47q-0.35-1.47-.59-3Zm1.25,5.37q0.41,1.34.9,2.65l-1.68.69q-0.54-1.41-1-2.87Zm1.94,5.16q0.58,1.28,1.24,2.51l-1.57.91q-0.72-1.33-1.35-2.72Zm2.61,4.86q0.74,1.19,1.55,2.32l-1.44,1.1q-0.89-1.23-1.69-2.52Zm3.21,4.48Q98.5,159,99.46,160l-1.28,1.28q-1-1.1-2-2.28Zm3.77,4q1,1,2.1,1.85l-1.1,1.44q-1.17-1-2.28-2Zm4.26,3.5q1.13,0.82,2.32,1.56l-0.91,1.57q-1.29-.8-2.52-1.69Zm1.41-71.62L108,95.4q-1.19.74-2.32,1.56l-1.1-1.44Q105.76,94.63,107.05,93.82Zm2.36,76.11,0.91-1.57q1.23,0.66,2.51,1.24l-0.69,1.68Q110.74,170.66,109.41,169.93Zm5.23,2.39,0.69-1.68q1.3,0.49,2.65.9l-0.47,1.75Q116.05,172.86,114.64,172.32Zm5.5,1.68,0.47-1.75q1.36,0.32,2.74.54l-0.24,1.8Q121.61,174.35,120.14,174Zm5.67,0.94,0.24-1.8q1.38,0.14,2.79.18v1.81Q127.31,175.1,125.81,175Zm5.75,0.2v-1.81q1.41,0,2.79-.18l0.24,1.8Q133.09,175.1,131.56,175.15Zm5.73-.55L137,172.8q1.39-.23,2.74-0.54l0.47,1.75Q138.79,174.35,137.28,174.6Zm5.6-1.3-0.47-1.75q1.34-.41,2.65-0.9l0.69,1.68Q144.35,172.86,142.89,173.3Zm5.39-2-0.69-1.68q1.28-.58,2.5-1.24l0.91,1.57Q149.66,170.65,148.27,171.28Zm5.07-2.71L152.44,167q1.19-.74,2.32-1.56l1.1,1.44Q154.64,167.77,153.35,168.57Z"/><path class="cls-3" d="M130.2,117.66a13.54,13.54,0,1,0,13.54,13.54A13.56,13.56,0,0,0,130.2,117.66Zm0,19.3A5.76,5.76,0,1,1,136,131.2,5.76,5.76,0,0,1,130.2,137Z"/></svg>